<mxfile host="app.diagrams.net" modified="2021-04-09T08:38:17.967Z" agent="5.0 (Windows NT 6.1; Win64; x64) AppleWebKit/537.36 (KHTML, like Gecko) Chrome/89.0.4389.114 Safari/537.36" etag="PgkKkcOWSrwCQDs474Ab" version="14.5.4" type="github">
  <diagram id="IqnHwqZcg5CjrRxSwrfH" name="Page-1">
    <mxGraphModel dx="1422" dy="789" grid="1" gridSize="10" guides="1" tooltips="1" connect="1" arrows="1" fold="1" page="1" pageScale="1" pageWidth="850" pageHeight="1100" math="0" shadow="0">
      <root>
        <mxCell id="0" />
        <mxCell id="1" parent="0" />
        <mxCell id="PJXNCdFAM0Jv-5hMsLMb-1" value="" style="verticalLabelPosition=bottom;html=1;verticalAlign=top;align=center;strokeColor=none;fillColor=#00BEF2;shape=mxgraph.azure.user;" parent="1" vertex="1">
          <mxGeometry x="130" y="50" width="47.5" height="50" as="geometry" />
        </mxCell>
        <mxCell id="PJXNCdFAM0Jv-5hMsLMb-2" value="" style="aspect=fixed;perimeter=ellipsePerimeter;html=1;align=center;shadow=0;dashed=0;spacingTop=3;image;image=img/lib/active_directory/user_accounts.svg;" parent="1" vertex="1">
          <mxGeometry x="610" y="50" width="50" height="48.5" as="geometry" />
        </mxCell>
        <mxCell id="PJXNCdFAM0Jv-5hMsLMb-3" value="register.xml" style="points=[[0,0,0],[0.25,0,0],[0.5,0,0],[0.75,0,0],[1,0,0],[0,1,0],[0.25,1,0],[0.5,1,0],[0.75,1,0],[1,1,0],[0,0.25,0],[0,0.5,0],[0,0.75,0],[1,0.25,0],[1,0.5,0],[1,0.75,0]];points=[[0,0,0],[0.25,0,0],[0.5,0,0],[0.75,0,0],[1,0,0],[0,1,0],[0.25,1,0],[0.5,1,0],[0.75,1,0],[1,1,0],[0,0.25,0],[0,0.5,0],[0,0.75,0],[1,0.25,0],[1,0.5,0],[1,0.75,0]];outlineConnect=0;fontColor=#232F3E;gradientColor=#F34482;gradientDirection=north;fillColor=#BC1356;strokeColor=#ffffff;dashed=0;verticalLabelPosition=bottom;verticalAlign=top;align=center;html=1;fontSize=12;fontStyle=0;aspect=fixed;shape=mxgraph.aws4.resourceIcon;resIcon=mxgraph.aws4.app_config;" parent="1" vertex="1">
          <mxGeometry x="125.85" y="192.5" width="57.5" height="57.5" as="geometry" />
        </mxCell>
        <mxCell id="PJXNCdFAM0Jv-5hMsLMb-4" value="&lt;font color=&quot;#3333ff&quot;&gt;Backup App: GoodSync&lt;/font&gt;" style="aspect=fixed;perimeter=ellipsePerimeter;html=1;align=center;shadow=0;dashed=0;fontColor=#4277BB;labelBackgroundColor=#ffffff;fontSize=12;spacingTop=3;image;image=img/lib/ibm/social/file_sync.svg;" parent="1" vertex="1">
          <mxGeometry x="601" y="210" width="60" height="60" as="geometry" />
        </mxCell>
        <mxCell id="PJXNCdFAM0Jv-5hMsLMb-5" value="&lt;font color=&quot;#3333ff&quot;&gt;RPM Folder&lt;/font&gt;" style="aspect=fixed;pointerEvents=1;shadow=0;dashed=0;html=1;strokeColor=none;labelPosition=center;verticalLabelPosition=bottom;verticalAlign=top;align=center;fillColor=#00188D;shape=mxgraph.mscae.enterprise.folder" parent="1" vertex="1">
          <mxGeometry x="490" y="370" width="70" height="60.2" as="geometry" />
        </mxCell>
        <mxCell id="PJXNCdFAM0Jv-5hMsLMb-6" value="&lt;font color=&quot;#3333ff&quot;&gt;nxrmserv&lt;/font&gt;" style="aspect=fixed;perimeter=ellipsePerimeter;html=1;align=center;shadow=0;dashed=0;spacingTop=3;image;image=img/lib/active_directory/windows_server.svg;" parent="1" vertex="1">
          <mxGeometry x="130" y="370" width="49.2" height="60" as="geometry" />
        </mxCell>
        <mxCell id="PJXNCdFAM0Jv-5hMsLMb-7" value="" style="endArrow=none;dashed=1;html=1;" parent="1" edge="1">
          <mxGeometry width="50" height="50" relative="1" as="geometry">
            <mxPoint x="60" y="510" as="sourcePoint" />
            <mxPoint x="820" y="510" as="targetPoint" />
          </mxGeometry>
        </mxCell>
        <mxCell id="PJXNCdFAM0Jv-5hMsLMb-8" value="Kernel" style="edgeLabel;html=1;align=center;verticalAlign=middle;resizable=0;points=[];" parent="PJXNCdFAM0Jv-5hMsLMb-7" vertex="1" connectable="0">
          <mxGeometry x="-0.9474" y="1" relative="1" as="geometry">
            <mxPoint as="offset" />
          </mxGeometry>
        </mxCell>
        <mxCell id="PJXNCdFAM0Jv-5hMsLMb-9" value="" style="rounded=1;whiteSpace=wrap;html=1;" parent="1" vertex="1">
          <mxGeometry x="150" y="570" width="599" height="110" as="geometry" />
        </mxCell>
        <mxCell id="PJXNCdFAM0Jv-5hMsLMb-10" value="" style="endArrow=classic;html=1;exitX=0.5;exitY=1;exitDx=0;exitDy=0;exitPerimeter=0;" parent="1" source="PJXNCdFAM0Jv-5hMsLMb-1" target="PJXNCdFAM0Jv-5hMsLMb-3" edge="1">
          <mxGeometry width="50" height="50" relative="1" as="geometry">
            <mxPoint x="410" y="440" as="sourcePoint" />
            <mxPoint x="460" y="390" as="targetPoint" />
          </mxGeometry>
        </mxCell>
        <mxCell id="PJXNCdFAM0Jv-5hMsLMb-11" value="&lt;font color=&quot;#3333ff&quot;&gt;Config Backup APP&lt;/font&gt;" style="edgeLabel;html=1;align=center;verticalAlign=middle;resizable=0;points=[];" parent="PJXNCdFAM0Jv-5hMsLMb-10" vertex="1" connectable="0">
          <mxGeometry x="-0.2545" y="-1" relative="1" as="geometry">
            <mxPoint as="offset" />
          </mxGeometry>
        </mxCell>
        <mxCell id="PJXNCdFAM0Jv-5hMsLMb-12" value="" style="endArrow=classic;html=1;" parent="1" edge="1">
          <mxGeometry width="50" height="50" relative="1" as="geometry">
            <mxPoint x="630" y="100" as="sourcePoint" />
            <mxPoint x="630" y="208" as="targetPoint" />
          </mxGeometry>
        </mxCell>
        <mxCell id="PJXNCdFAM0Jv-5hMsLMb-13" value="&lt;font color=&quot;#3333ff&quot;&gt;Create Synchronize Job&lt;/font&gt;" style="edgeLabel;html=1;align=center;verticalAlign=middle;resizable=0;points=[];" parent="PJXNCdFAM0Jv-5hMsLMb-12" vertex="1" connectable="0">
          <mxGeometry x="-0.2593" y="-1" relative="1" as="geometry">
            <mxPoint as="offset" />
          </mxGeometry>
        </mxCell>
        <mxCell id="PJXNCdFAM0Jv-5hMsLMb-14" value="" style="endArrow=classic;html=1;exitX=0.25;exitY=1;exitDx=0;exitDy=0;entryX=0.5;entryY=0.017;entryDx=0;entryDy=0;entryPerimeter=0;" parent="1" source="PJXNCdFAM0Jv-5hMsLMb-4" target="PJXNCdFAM0Jv-5hMsLMb-5" edge="1">
          <mxGeometry width="50" height="50" relative="1" as="geometry">
            <mxPoint x="410" y="340" as="sourcePoint" />
            <mxPoint x="460" y="290" as="targetPoint" />
          </mxGeometry>
        </mxCell>
        <mxCell id="PJXNCdFAM0Jv-5hMsLMb-15" value="" style="shape=image;html=1;verticalAlign=top;verticalLabelPosition=bottom;labelBackgroundColor=#ffffff;imageAspect=0;aspect=fixed;image=https://cdn3.iconfinder.com/data/icons/interface-8/128/InterfaceExpendet-01-128.png" parent="1" vertex="1">
          <mxGeometry x="99.6" y="250" width="110" height="110" as="geometry" />
        </mxCell>
        <mxCell id="PJXNCdFAM0Jv-5hMsLMb-16" value="&lt;font color=&quot;#3333ff&quot;&gt;heartbeat check backup app items&lt;/font&gt;" style="text;html=1;align=center;verticalAlign=middle;resizable=0;points=[];autosize=1;" parent="1" vertex="1">
          <mxGeometry x="54.599999999999994" y="340" width="200" height="20" as="geometry" />
        </mxCell>
        <mxCell id="PJXNCdFAM0Jv-5hMsLMb-19" value="Tom" style="text;html=1;align=center;verticalAlign=middle;resizable=0;points=[];autosize=1;" parent="1" vertex="1">
          <mxGeometry x="133.75" y="20" width="40" height="20" as="geometry" />
        </mxCell>
        <mxCell id="PJXNCdFAM0Jv-5hMsLMb-20" value="Jason" style="text;html=1;align=center;verticalAlign=middle;resizable=0;points=[];autosize=1;" parent="1" vertex="1">
          <mxGeometry x="601" y="20" width="50" height="20" as="geometry" />
        </mxCell>
        <mxCell id="PJXNCdFAM0Jv-5hMsLMb-21" value="" style="endArrow=classic;html=1;exitX=0.75;exitY=1;exitDx=0;exitDy=0;entryX=0.826;entryY=0.018;entryDx=0;entryDy=0;entryPerimeter=0;" parent="1" source="PJXNCdFAM0Jv-5hMsLMb-4" edge="1">
          <mxGeometry width="50" height="50" relative="1" as="geometry">
            <mxPoint x="410" y="340" as="sourcePoint" />
            <mxPoint x="746.9940000000001" y="371.00800000000004" as="targetPoint" />
          </mxGeometry>
        </mxCell>
        <mxCell id="PJXNCdFAM0Jv-5hMsLMb-22" value="&lt;font color=&quot;#3333ff&quot;&gt;Backup App : Synchronize&lt;/font&gt;" style="text;html=1;align=center;verticalAlign=middle;resizable=0;points=[];autosize=1;" parent="1" vertex="1">
          <mxGeometry x="560" y="330" width="150" height="20" as="geometry" />
        </mxCell>
        <mxCell id="PJXNCdFAM0Jv-5hMsLMb-23" value="&lt;span style=&quot;color: rgb(51 , 51 , 255) ; background-color: rgb(248 , 249 , 250)&quot;&gt;Backup Folde&lt;/span&gt;" style="aspect=fixed;html=1;points=[];align=center;image;fontSize=12;image=img/lib/azure2/general/Folder_Website.svg;" parent="1" vertex="1">
          <mxGeometry x="699" y="370" width="68" height="56.00000000000001" as="geometry" />
        </mxCell>
        <mxCell id="PJXNCdFAM0Jv-5hMsLMb-24" value="" style="curved=1;endArrow=classic;html=1;exitX=0.3;exitY=1.013;exitDx=0;exitDy=0;exitPerimeter=0;dashed=1;startArrow=none;startFill=0;endFill=1;" parent="1" edge="1">
          <mxGeometry width="50" height="50" relative="1" as="geometry">
            <mxPoint x="511" y="430.98260000000005" as="sourcePoint" />
            <mxPoint x="760" y="420" as="targetPoint" />
            <Array as="points">
              <mxPoint x="560" y="460" />
              <mxPoint x="650" y="630" />
            </Array>
          </mxGeometry>
        </mxCell>
        <mxCell id="PJXNCdFAM0Jv-5hMsLMb-25" value="&lt;font color=&quot;#3333ff&quot;&gt;IRP Request : for backup app, nxrmflt will return the file name with the .nxl extension&lt;/font&gt;" style="edgeLabel;html=1;align=center;verticalAlign=middle;resizable=0;points=[];" parent="PJXNCdFAM0Jv-5hMsLMb-24" vertex="1" connectable="0">
          <mxGeometry x="-0.4028" y="-2" relative="1" as="geometry">
            <mxPoint x="6.310000000000002" y="-1.6899999999999995" as="offset" />
          </mxGeometry>
        </mxCell>
        <mxCell id="PJXNCdFAM0Jv-5hMsLMb-26" value="&lt;font color=&quot;#3333ff&quot;&gt;Read file from RPM folder to Backup folder&lt;/font&gt;" style="edgeLabel;html=1;align=center;verticalAlign=middle;resizable=0;points=[];" parent="PJXNCdFAM0Jv-5hMsLMb-24" vertex="1" connectable="0">
          <mxGeometry x="-0.7008" y="-7" relative="1" as="geometry">
            <mxPoint x="60.55" y="6.07" as="offset" />
          </mxGeometry>
        </mxCell>
        <mxCell id="PJXNCdFAM0Jv-5hMsLMb-28" value="Dir Control" style="rounded=0;whiteSpace=wrap;html=1;" parent="1" vertex="1">
          <mxGeometry x="575" y="580" width="120" height="40" as="geometry" />
        </mxCell>
        <mxCell id="PJXNCdFAM0Jv-5hMsLMb-31" value="" style="endArrow=classic;html=1;exitX=0;exitY=0;exitDx=0;exitDy=0;dashed=1;" parent="1" source="PJXNCdFAM0Jv-5hMsLMb-28" edge="1">
          <mxGeometry width="50" height="50" relative="1" as="geometry">
            <mxPoint x="400" y="480" as="sourcePoint" />
            <mxPoint x="180" y="421" as="targetPoint" />
          </mxGeometry>
        </mxCell>
        <mxCell id="PJXNCdFAM0Jv-5hMsLMb-32" value="&lt;font color=&quot;#3333ff&quot;&gt;5&lt;/font&gt;" style="edgeLabel;html=1;align=center;verticalAlign=middle;resizable=0;points=[];" parent="PJXNCdFAM0Jv-5hMsLMb-31" vertex="1" connectable="0">
          <mxGeometry x="0.1918" y="-1" relative="1" as="geometry">
            <mxPoint as="offset" />
          </mxGeometry>
        </mxCell>
        <mxCell id="PJXNCdFAM0Jv-5hMsLMb-33" value="&lt;font color=&quot;#3333ff&quot;&gt;1&lt;/font&gt;" style="text;html=1;align=center;verticalAlign=middle;resizable=0;points=[];autosize=1;" parent="1" vertex="1">
          <mxGeometry x="600" y="160" width="20" height="20" as="geometry" />
        </mxCell>
        <mxCell id="PJXNCdFAM0Jv-5hMsLMb-34" value="&lt;font color=&quot;#3333ff&quot;&gt;2&lt;/font&gt;" style="text;html=1;align=center;verticalAlign=middle;resizable=0;points=[];autosize=1;" parent="1" vertex="1">
          <mxGeometry x="550" y="292" width="20" height="20" as="geometry" />
        </mxCell>
        <mxCell id="PJXNCdFAM0Jv-5hMsLMb-35" value="&lt;font color=&quot;#3333ff&quot;&gt;3&lt;/font&gt;" style="text;html=1;align=center;verticalAlign=middle;resizable=0;points=[];autosize=1;" parent="1" vertex="1">
          <mxGeometry x="587" y="548" width="20" height="20" as="geometry" />
        </mxCell>
        <mxCell id="PJXNCdFAM0Jv-5hMsLMb-36" value="&lt;font color=&quot;#3333ff&quot;&gt;6&lt;/font&gt;" style="text;html=1;align=center;verticalAlign=middle;resizable=0;points=[];autosize=1;" parent="1" vertex="1">
          <mxGeometry x="683" y="548" width="20" height="20" as="geometry" />
        </mxCell>
        <mxCell id="PJXNCdFAM0Jv-5hMsLMb-37" value="&lt;font color=&quot;#3333ff&quot;&gt;nxrmflt.sys&lt;/font&gt;" style="text;html=1;align=center;verticalAlign=middle;resizable=0;points=[];autosize=1;" parent="1" vertex="1">
          <mxGeometry x="390" y="680" width="70" height="20" as="geometry" />
        </mxCell>
        <mxCell id="PJXNCdFAM0Jv-5hMsLMb-38" value="" style="endArrow=classic;html=1;exitX=0;exitY=0.75;exitDx=0;exitDy=0;entryX=0.5;entryY=1;entryDx=0;entryDy=0;dashed=1;" parent="1" source="PJXNCdFAM0Jv-5hMsLMb-28" target="PJXNCdFAM0Jv-5hMsLMb-6" edge="1">
          <mxGeometry width="50" height="50" relative="1" as="geometry">
            <mxPoint x="400" y="430" as="sourcePoint" />
            <mxPoint x="450" y="380" as="targetPoint" />
          </mxGeometry>
        </mxCell>
        <mxCell id="PJXNCdFAM0Jv-5hMsLMb-39" value="&lt;font color=&quot;#3333ff&quot;&gt;4&lt;/font&gt;" style="edgeLabel;html=1;align=center;verticalAlign=middle;resizable=0;points=[];" parent="PJXNCdFAM0Jv-5hMsLMb-38" vertex="1" connectable="0">
          <mxGeometry x="0.3403" y="1" relative="1" as="geometry">
            <mxPoint as="offset" />
          </mxGeometry>
        </mxCell>
      </root>
    </mxGraphModel>
  </diagram>
</mxfile>
